<svg width="313.28" height="321.373" viewBox="0 0 234.96 241.03" class="displayed_equation" xmlns="http://www.w3.org/2000/svg" xmlns:xlink="http://www.w3.org/1999/xlink">
  <defs>
    <clipPath id="svg694162356987tikz_00003b">
      <path d="M 1 0.175781 L 6.605469 0.175781 L 6.605469 8 L 1 8 Z M 1 0.175781" />
    </clipPath>
    <clipPath id="svg694162356987tikz_00003a">
      <path d="M0 0H7V9H0z" />
    </clipPath>
    <g id="svg694162356987tikz_00003g" clip-path="url(#svg694162356987tikz_00003a)">
      <path d="M 3.609375 1.304688 L 1.546875 6.773438 L 3.609375 4.96875 L 5.671875 6.773438" />
      <g clip-path="url(#svg694162356987tikz_00003b)">
        <path d="M 886.09375 2147.253125 L 865.46875 2092.565625 L 886.09375 2110.6125 L 906.71875 2092.565625 Z M 886.09375 2147.253125" transform="matrix(.1 0 0 -.1 -85 216.03)" fill="none" stroke-width="7.97" stroke-linejoin="round" stroke="#000" stroke-miterlimit="10" />
      </g>
    </g>
    <clipPath id="svg694162356987tikz_00003d">
      <path d="M 1 1 L 8 1 L 8 6.933594 L 1 6.933594 Z M 1 1" />
    </clipPath>
    <clipPath id="svg694162356987tikz_00003c">
      <path d="M0 0H9V7H0z" />
    </clipPath>
    <g id="svg694162356987tikz_00003h" clip-path="url(#svg694162356987tikz_00003c)">
      <path d="M 7.242188 3.9375 L 1.773438 1.875 L 3.578125 3.9375 L 1.773438 6" />
      <g clip-path="url(#svg694162356987tikz_00003d)">
        <path d="M 2082.421875 950.925 L 2027.734375 971.55 L 2045.78125 950.925 L 2027.734375 930.3 Z M 2082.421875 950.925" transform="matrix(.1 0 0 -.1 -201 99.03)" fill="none" stroke-width="7.97" stroke-linejoin="round" stroke="#000" stroke-miterlimit="10" />
      </g>
    </g>
    <clipPath id="svg694162356987tikz_00003e">
      <path d="M0 0H16V16H0z" />
    </clipPath>
    <g id="svg694162356987tikz_00003i" clip-path="url(#svg694162356987tikz_00003e)">
      <path d="M 4.667969 10.878906 L 9.996094 8.46875 L 7.261719 8.289063 L 7.078125 5.550781" />
      <path d="M 196.679688 261.510938 L 249.960938 285.6125 L 222.617188 287.409375 L 220.78125 314.792188 Z M 196.679688 261.510938" transform="matrix(.1 0 0 -.1 -15 37.03)" fill="none" stroke-width="7.97" stroke-linejoin="round" stroke="#000" stroke-miterlimit="10" />
    </g>
    <clipPath id="svg694162356987tikz_00003f">
      <path d="M0 0H22V21H0z" />
    </clipPath>
    <g id="svg694162356987tikz_00003j" clip-path="url(#svg694162356987tikz_00003f)">
      <path d="M 14.921875 6.464844 L 8.296875 8.730469 L 11.546875 9.253906 L 11.453125 12.546875" fill="#e132a2" />
      <path d="M 1569.21875 1515.651563 L 1502.96875 1492.995313 L 1535.46875 1487.760938 L 1534.53125 1454.83125 Z M 1569.21875 1515.651563" transform="matrix(.1 0 0 -.1 -142 158.03)" fill="none" stroke-width="12.494" stroke-linejoin="round" stroke="#e132a2" stroke-miterlimit="10" />
    </g>
  </defs>
  <path d="M 886.09375 2108.620313 L 886.09375 950.925 L 2043.789063 950.925" transform="matrix(.1 0 0 -.1 0 241.03)" fill="none" stroke-width="7.97" stroke-linejoin="round" stroke="#000" stroke-miterlimit="10" />
  <use xlink:href="#svg694162356987tikz_00003g" transform="translate(85 25)" />
  <use xlink:href="#svg694162356987tikz_00003h" transform="translate(201 142)" />
  <path d="M90.6875 19.109375L90.320313 19.109375C89.960938 20.050781 89.726563 20.214844 88.933594 20.214844L87.21875 20.214844 87.21875 20.183594 91.132813 16.054688 91.179688 15.753906 87.09375 15.753906 86.679688 17.515625 87.027344 17.515625C87.25 16.769531 87.375 16.566406 88.085938 16.566406L89.894531 16.566406 89.894531 16.601563 85.988281 20.707031 85.945313 21.03125 90.183594 21.03125 90.6875 19.109375M216.300781 143.902344C216.164063 143.011719 216.089844 142.65625 215.84375 142.230469L215.675781 142.230469 214.089844 142.351563 214.089844 142.675781C214.089844 142.675781 214.324219 142.65625 214.480469 142.65625 215.164063 142.65625 215.21875 143.203125 215.296875 143.703125L215.953125 147.628906C215.640625 148.109375 214.839844 149.171875 214.628906 149.171875 214.382813 149.171875 214.257813 148.578125 213.835938 148.578125 213.578125 148.578125 213.398438 148.722656 213.398438 149.058594 213.398438 149.46875 213.789063 149.78125 214.257813 149.78125 215.105469 149.78125 215.886719 148.523438 216.722656 147.363281 217.304688 146.558594 217.941406 145.601563 218.542969 144.539063 218.898438 143.9375 219.03125 143.4375 219.03125 143 219.03125 142.519531 218.742188 142.152344 218.332031 142.152344 218.007813 142.152344 217.839844 142.351563 217.839844 142.585938 217.839844 143.011719 218.386719 143.324219 218.386719 143.613281 218.386719 143.882813 218.285156 144.148438 218.019531 144.585938L216.734375 146.648438 216.667969 146.648438 216.570313 145.53125 216.300781 143.902344" />
  <path d="M 886.09375 950.925 L 224.023438 288.854688" transform="matrix(.1 0 0 -.1 0 241.03)" fill="none" stroke-width="7.97" stroke-linejoin="round" stroke="#000" stroke-miterlimit="10" />
  <use xlink:href="#svg694162356987tikz_00003i" transform="translate(15 204)" />
  <path d="M 19.214844 221.90625 L 19.179688 221.90625 L 19.046875 221.335938 C 18.890625 220.734375 18.679688 220.242188 18.410156 219.929688 L 18.242188 219.929688 L 16.691406 220.109375 L 16.691406 220.445313 C 16.691406 220.445313 16.859375 220.410156 17.039063 220.410156 C 17.773438 220.398438 17.964844 220.699219 18.265625 221.636719 L 18.578125 222.652344 L 17.773438 223.824219 C 17.339844 224.449219 17.140625 224.460938 17.09375 224.460938 C 16.90625 224.460938 16.636719 224.316406 16.390625 224.316406 C 16.125 224.316406 15.957031 224.5625 15.957031 224.78125 C 15.957031 225.0625 16.125 225.328125 16.601563 225.328125 C 17.273438 225.328125 17.640625 224.804688 18 224.226563 L 18.710938 223.066406 L 18.757813 223.066406 L 19.035156 224.191406 C 19.191406 224.917969 19.4375 225.339844 19.949219 225.339844 C 20.710938 225.339844 21.179688 224.582031 21.5 224.09375 L 21.265625 223.914063 C 20.964844 224.316406 20.753906 224.539063 20.464844 224.539063 C 20.117188 224.539063 19.894531 224.125 19.582031 223.097656 L 19.347656 222.339844 L 20.027344 221.257813 C 20.21875 220.945313 20.375 220.789063 20.632813 220.789063 C 20.777344 220.789063 21.03125 220.902344 21.210938 220.902344 C 21.511719 220.902344 21.726563 220.644531 21.726563 220.375 C 21.726563 220.0625 21.589844 219.886719 21.167969 219.886719 C 20.507813 219.886719 20.0625 220.433594 19.761719 220.96875 L 19.214844 221.90625" />
  <path d="M 886.09375 950.925 L 1533.085938 1485.76875" transform="matrix(.1 0 0 -.1 0 241.03)" fill="none" stroke-width="12.454" stroke-linejoin="round" stroke="#e132a2" stroke-miterlimit="10" />
  <use xlink:href="#svg694162356987tikz_00003j" transform="translate(142 83)" />
  <path d="M142.121094 81.730469L142.1875 81.394531C141.515625 81.394531 141.328125 81.148438 141.21875 80.402344L140.335938 74.355469 139.867188 74.355469 136.007813 79.945313C135.171875 81.21875 134.957031 81.394531 134.34375 81.394531L134.265625 81.730469 136.597656 81.730469 136.675781 81.394531C136.183594 81.394531 136.027344 81.328125 136.027344 81.09375 136.027344 80.882813 136.164063 80.691406 136.308594 80.46875L137.089844 79.285156 139.96875 79.285156 140.078125 80.289063C140.089844 80.425781 140.101563 80.582031 140.101563 80.761719 140.101563 81.316406 139.753906 81.394531 139.207031 81.394531L139.140625 81.730469zM139.921875 78.839844L137.355469 78.839844 139.519531 75.617188 139.554688 75.617188 139.921875 78.839844M148.679688 78.875C148.679688 81.328125 149.851563 83.078125 151.648438 84.003906L151.828125 83.691406C150.195313 82.621094 149.59375 81.117188 149.59375 78.875 149.59375 76.652344 150.195313 75.15625 151.828125 74.074219L151.648438 73.785156C149.851563 74.699219 148.679688 76.441406 148.679688 78.875M157.378906 79.945313L157.054688 79.945313C156.796875 80.613281 156.652344 80.847656 156.058594 80.847656L154.507813 80.847656 153.726563 80.882813 153.726563 80.828125 155.203125 79.433594C156.382813 78.238281 157.019531 77.46875 157.019531 76.476563 157.019531 75.304688 156.136719 74.546875 154.878906 74.546875 153.796875 74.546875 153.039063 75.171875 152.691406 76.253906L152.960938 76.363281C153.371094 75.527344 153.863281 75.269531 154.589844 75.269531 155.445313 75.269531 155.980469 75.808594 155.980469 76.640625 155.980469 77.8125 155.421875 78.515625 154.320313 79.65625L152.621094 81.351563 152.621094 81.730469 157.019531 81.730469 157.378906 79.945313M158.523438 83.3125C158.972656 83.113281 159.910156 82.734375 159.910156 81.472656 159.910156 80.859375 159.609375 80.492188 159.050781 80.492188 158.601563 80.492188 158.359375 80.792969 158.359375 81.148438 158.359375 81.472656 158.539063 81.753906 158.972656 81.753906 159.09375 81.753906 159.195313 81.730469 159.316406 81.683594 159.316406 82.589844 158.804688 82.855469 158.390625 83.035156L158.523438 83.3125M167.050781 75.605469L167.230469 74.703125 164.171875 74.703125 163.484375 77.613281 163.617188 77.78125C163.773438 77.78125 163.828125 77.78125 164.117188 77.804688 165.65625 77.882813 166.527344 78.339844 166.527344 79.734375 166.527344 80.890625 165.824219 81.316406 165.03125 81.316406 164.320313 81.316406 163.949219 80.769531 163.503906 80.769531 163.226563 80.769531 163.058594 80.992188 163.058594 81.25 163.058594 81.664063 163.484375 81.875 164.339844 81.875 166.117188 81.875 167.34375 81.003906 167.34375 79.285156 167.34375 77.535156 165.96875 77.011719 164.652344 76.910156L164.128906 76.878906 164.429688 75.605469 167.050781 75.605469M168.726563 83.3125C169.171875 83.113281 170.109375 82.734375 170.109375 81.472656 170.109375 80.859375 169.808594 80.492188 169.25 80.492188 168.804688 80.492188 168.558594 80.792969 168.558594 81.148438 168.558594 81.472656 168.738281 81.753906 169.171875 81.753906 169.296875 81.753906 169.394531 81.730469 169.515625 81.683594 169.515625 82.589844 169.003906 82.855469 168.59375 83.035156L168.726563 83.3125M173.558594 76.175781C173.9375 75.582031 174.351563 75.269531 175.019531 75.269531 175.714844 75.269531 176.160156 75.648438 176.160156 76.308594 176.160156 77.210938 175.367188 77.824219 174.609375 77.824219L174.398438 77.824219 174.398438 78.25 174.617188 78.25C175.691406 78.25 176.640625 78.90625 176.640625 79.898438 176.640625 80.992188 175.957031 81.316406 175.253906 81.316406 174.988281 81.316406 174.832031 81.273438 174.351563 81.027344 173.960938 80.828125 173.871094 80.769531 173.695313 80.769531 173.402344 80.769531 173.257813 81.027344 173.257813 81.261719 173.257813 81.550781 173.503906 81.875 174.507813 81.875 176.136719 81.875 177.554688 81.09375 177.554688 79.566406 177.554688 78.570313 176.804688 77.980469 175.914063 77.703125L175.914063 77.667969C176.617188 77.222656 177.117188 76.808594 177.117188 76.039063 177.117188 75.191406 176.460938 74.546875 175.320313 74.546875 174.40625 74.546875 173.714844 75.058594 173.304688 76.027344L173.558594 76.175781M181.691406 78.875C181.691406 76.441406 180.519531 74.699219 178.726563 73.785156L178.546875 74.074219C180.175781 75.15625 180.777344 76.652344 180.777344 78.875 180.777344 81.117188 180.175781 82.621094 178.546875 83.691406L178.726563 84.003906C180.519531 83.078125 181.691406 81.328125 181.691406 78.875" />
  <path d="M160.84375 88.332031C160.84375 86.921875 159.703125 85.78125 158.292969 85.78125 156.882813 85.78125 155.742188 86.921875 155.742188 88.332031 155.742188 89.742188 156.882813 90.882813 158.292969 90.882813 159.703125 90.882813 160.84375 89.742188 160.84375 88.332031zM91.160156 145.9375C91.160156 144.527344 90.019531 143.386719 88.609375 143.386719 87.203125 143.386719 86.058594 144.527344 86.058594 145.9375 86.058594 147.347656 87.203125 148.488281 88.609375 148.488281 90.019531 148.488281 91.160156 147.347656 91.160156 145.9375zM91.160156 145.9375" fill="#62aadf" />
  <path d="M100.097656 153.554688C100.097656 152.050781 99.269531 150.664063 97.25 150.664063 94.851563 150.664063 93.125 152.695313 93.125 155.351563 93.125 156.992188 93.894531 158.265625 95.945313 158.265625 98.300781 158.265625 100.097656 156.398438 100.097656 153.554688zM98.960938 153.511719C98.960938 155.988281 97.886719 157.785156 96.078125 157.785156 94.695313 157.785156 94.273438 156.746094 94.273438 155.417969 94.273438 153.054688 95.367188 151.144531 97.128906 151.144531 98.277344 151.144531 98.960938 151.9375 98.960938 153.511719M106.679688 155.171875C106.679688 157.625 107.851563 159.378906 109.648438 160.304688L109.828125 159.992188C108.195313 158.921875 107.59375 157.414063 107.59375 155.171875 107.59375 152.953125 108.195313 151.457031 109.828125 150.375L109.648438 150.085938C107.851563 151 106.679688 152.742188 106.679688 155.171875M115.421875 154.59375C115.421875 152.296875 114.417969 150.96875 112.976563 150.96875 111.359375 150.96875 110.503906 152.441406 110.503906 154.558594 110.503906 156.535156 111.160156 158.253906 112.957031 158.253906 114.707031 158.253906 115.421875 156.5 115.421875 154.59375zM114.339844 154.660156C114.339844 156.800781 113.839844 157.851563 112.957031 157.851563 112.0625 157.851563 111.570313 156.78125 111.570313 154.617188 111.570313 152.40625 112.0625 151.347656 112.945313 151.347656 113.859375 151.347656 114.339844 152.394531 114.339844 154.660156M116.523438 159.714844C116.972656 159.511719 117.910156 159.132813 117.910156 157.875 117.910156 157.257813 117.609375 156.890625 117.050781 156.890625 116.601563 156.890625 116.359375 157.191406 116.359375 157.550781 116.359375 157.875 116.539063 158.152344 116.972656 158.152344 117.09375 158.152344 117.195313 158.128906 117.316406 158.085938 117.316406 158.988281 116.804688 159.257813 116.390625 159.433594L116.523438 159.714844M125.621094 154.59375C125.621094 152.296875 124.617188 150.96875 123.179688 150.96875 121.5625 150.96875 120.703125 152.441406 120.703125 154.558594 120.703125 156.535156 121.359375 158.253906 123.15625 158.253906 124.90625 158.253906 125.621094 156.5 125.621094 154.59375zM124.539063 154.660156C124.539063 156.800781 124.039063 157.851563 123.15625 157.851563 122.261719 157.851563 121.773438 156.78125 121.773438 154.617188 121.773438 152.40625 122.261719 151.347656 123.144531 151.347656 124.058594 151.347656 124.539063 152.394531 124.539063 154.660156M126.824219 159.714844C127.273438 159.511719 128.210938 159.132813 128.210938 157.875 128.210938 157.257813 127.90625 156.890625 127.351563 156.890625 126.902344 156.890625 126.65625 157.191406 126.65625 157.550781 126.65625 157.875 126.839844 158.152344 127.273438 158.152344 127.394531 158.152344 127.496094 158.128906 127.617188 158.085938 127.617188 158.988281 127.105469 159.257813 126.691406 159.433594L126.824219 159.714844M135.820313 154.59375C135.820313 152.296875 134.816406 150.96875 133.378906 150.96875 131.761719 150.96875 130.902344 152.441406 130.902344 154.558594 130.902344 156.535156 131.558594 158.253906 133.355469 158.253906 135.109375 158.253906 135.820313 156.5 135.820313 154.59375zM134.738281 154.660156C134.738281 156.800781 134.238281 157.851563 133.355469 157.851563 132.464844 157.851563 131.972656 156.78125 131.972656 154.617188 131.972656 152.40625 132.464844 151.347656 133.34375 151.347656 134.257813 151.347656 134.738281 152.394531 134.738281 154.660156M139.691406 155.171875C139.691406 152.742188 138.519531 151 136.726563 150.085938L136.546875 150.375C138.175781 151.457031 138.777344 152.953125 138.777344 155.171875 138.777344 157.414063 138.175781 158.921875 136.546875 159.992188L136.726563 160.304688C138.519531 159.378906 139.691406 157.625 139.691406 155.171875" />
</svg>